<?xml version="1.0" encoding="UTF-8"?><svg id="Layer_2" xmlns="http://www.w3.org/2000/svg" xmlns:xlink="http://www.w3.org/1999/xlink" viewBox="0 0 435.22 142.29"><defs><style>.cls-1{fill:url(#linear-gradient);}.cls-2{fill:#20a27c;}.cls-3{fill:url(#linear-gradient-3);}.cls-4{fill:url(#linear-gradient-4);}.cls-5{fill:url(#linear-gradient-2);}</style><linearGradient id="linear-gradient" x1="3.01" y1="36.97" x2="64.47" y2="36.97" gradientUnits="userSpaceOnUse"><stop offset="0" stop-color="#ffd914"/><stop offset="1" stop-color="#fdb609"/></linearGradient><linearGradient id="linear-gradient-2" x1="68.03" y1="54.87" x2="109.44" y2="54.87" gradientUnits="userSpaceOnUse"><stop offset="0" stop-color="#0499f5"/><stop offset=".47" stop-color="#26acf8"/><stop offset=".86" stop-color="#3fbafb"/></linearGradient><linearGradient id="linear-gradient-3" x1="3.01" y1="96.13" x2="109.44" y2="96.13" gradientUnits="userSpaceOnUse"><stop offset="0" stop-color="#ed3824"/><stop offset=".26" stop-color="#ef461c"/><stop offset=".75" stop-color="#f66d0a"/><stop offset="1" stop-color="#fa8400"/></linearGradient><linearGradient id="linear-gradient-4" x1="68.03" y1="19.27" x2="109.44" y2="19.27" gradientUnits="userSpaceOnUse"><stop offset="0" stop-color="#0053c8"/><stop offset=".42" stop-color="#0061cc"/><stop offset=".72" stop-color="#006fd0"/></linearGradient></defs><g id="Layer_1-2"><rect width="112.51" height="121.39" rx="3.74" ry="3.74"/><line class="cls-2" x1="313.3" y1="61.42" x2="372.36" y2="49.4"/><rect class="cls-1" x="3.01" y="3.3" width="61.46" height="67.34" rx="1.53" ry="1.53"/><rect class="cls-5" x="68.03" y="39.11" width="41.4" height="31.52" rx="1.53" ry="1.53"/><rect class="cls-3" x="3.01" y="74.38" width="106.43" height="43.51" rx="1.53" ry="1.53"/><rect class="cls-4" x="68.03" y="3.3" width="41.4" height="31.93" rx="1.53" ry="1.53"/><path d="m158.36,37.5c1.29,0,2.45-.26,3.46-.79s1.88-1.25,2.59-2.18,1.25-2.02,1.62-3.28c.37-1.26.56-2.62.56-4.08V7.82h1.94v19.35c0,1.73-.23,3.34-.7,4.83-.47,1.5-1.14,2.8-2.02,3.92-.88,1.11-1.95,1.99-3.21,2.62s-2.67.95-4.24.95-2.98-.32-4.24-.95c-1.26-.63-2.33-1.51-3.21-2.62s-1.55-2.42-2.02-3.92c-.47-1.5-.7-3.11-.7-4.83V7.82h1.96v19.33c0,1.46.19,2.82.56,4.08s.91,2.36,1.61,3.28,1.56,1.66,2.58,2.19c1.02.53,2.17.8,3.46.8Z"/><path d="m176.49,20.96c.87-1.27,1.88-2.29,3.03-3.05,1.14-.77,2.42-1.15,3.83-1.15,1.04,0,1.95.19,2.74.58.79.38,1.45.94,1.96,1.66.52.72.91,1.59,1.18,2.61.27,1.02.4,2.17.4,3.45v14.07h-1.82v-14.07c0-2.06-.41-3.68-1.22-4.85-.81-1.17-2.04-1.76-3.7-1.76-1.23,0-2.38.37-3.45,1.09-1.07.73-2.02,1.74-2.86,3.04v16.54h-1.82v-22h1.01c.32,0,.5.18.55.55l.17,3.29Z"/><path d="m198.43,9.52c0,.27-.05.51-.14.74-.09.23-.22.43-.37.61-.15.18-.33.32-.53.42s-.42.15-.65.15-.44-.05-.65-.15-.38-.24-.53-.42c-.15-.18-.27-.38-.36-.61s-.13-.48-.13-.74.04-.52.13-.76.21-.45.36-.63c.15-.18.33-.32.53-.42.2-.1.42-.15.65-.15s.44.05.65.15c.2.1.38.24.53.42.15.18.28.39.37.63.1.24.14.5.14.76Zm-.78,7.59v22h-1.8v-22h1.8Z"/><path d="m229.06,17.11l-6.3,22h-1.35c-.21,0-.36-.16-.44-.46l-5.16-17.87c-.06-.22-.12-.44-.17-.66-.05-.22-.09-.44-.13-.66-.06.44-.16.88-.29,1.33l-5.24,17.87c-.08.31-.23.46-.46.46h-1.29l-6.3-22h1.37c.18,0,.32.05.44.17.11.11.19.23.23.37l4.77,17.36c.08.34.15.67.21.98.06.32.11.63.15.94.08-.31.15-.62.23-.94.08-.32.16-.65.27-.98l5.05-17.51c.09-.32.27-.49.53-.49h.74c.28,0,.46.16.55.49l5.01,17.51c.09.34.17.66.25.97s.15.62.21.93c.05-.31.1-.62.16-.93.06-.31.13-.63.22-.97l4.8-17.36c.05-.16.13-.29.25-.39.11-.1.25-.14.4-.14h1.31Z"/><path d="m233.54,27.24v.42c0,1.65.17,3.1.49,4.36s.8,2.3,1.41,3.15c.61.85,1.34,1.49,2.2,1.91.86.43,1.82.64,2.89.64.95,0,1.77-.12,2.47-.36s1.28-.52,1.76-.82.85-.58,1.13-.82.48-.37.61-.37c.16,0,.29.07.38.22l.49.71c-.3.44-.71.86-1.21,1.24-.5.38-1.06.71-1.67.98-.61.27-1.27.49-1.97.65-.7.16-1.41.24-2.12.24-1.29,0-2.47-.26-3.53-.79-1.06-.52-1.97-1.29-2.73-2.29-.76-1-1.34-2.23-1.76-3.68-.41-1.45-.62-3.11-.62-4.99,0-1.58.19-3.03.58-4.37.39-1.33.94-2.48,1.67-3.45.73-.96,1.62-1.72,2.68-2.27,1.06-.54,2.26-.82,3.6-.82,1.06,0,2.05.21,2.96.64s1.7,1.05,2.37,1.87c.67.82,1.2,1.82,1.59,3.02.39,1.19.58,2.57.58,4.11,0,.32-.04.54-.11.66s-.2.18-.38.18h-13.75Zm12.61-1.35c0-1.18-.14-2.24-.43-3.17-.28-.94-.69-1.73-1.21-2.38-.52-.65-1.14-1.15-1.85-1.49-.71-.35-1.5-.52-2.36-.52-.98,0-1.85.18-2.62.53-.77.35-1.44.86-2,1.53-.56.66-1.02,1.46-1.36,2.39-.34.93-.57,1.97-.68,3.12h12.51Z"/><path d="m254.52,20.93c.82-1.3,1.78-2.32,2.89-3.06s2.38-1.12,3.83-1.12c1.14,0,2.16.24,3.06.73.9.49,1.66,1.19,2.29,2.1.63.91,1.1,2.04,1.43,3.37.33,1.33.49,2.85.49,4.54,0,1.78-.18,3.41-.55,4.88-.37,1.47-.9,2.72-1.6,3.76-.7,1.04-1.56,1.84-2.57,2.41s-2.17.85-3.47.85-2.48-.3-3.43-.9c-.94-.6-1.76-1.49-2.44-2.67l-.13,2.72c-.04.37-.21.55-.51.55h-1.1V6.93h1.82v14Zm0,13.38c.73,1.27,1.54,2.16,2.42,2.67.88.51,1.87.76,2.97.76s2.11-.24,2.95-.71c.84-.47,1.54-1.15,2.11-2.02.56-.88.98-1.94,1.26-3.2s.42-2.66.42-4.22c0-3.04-.52-5.32-1.56-6.86-1.04-1.53-2.49-2.3-4.37-2.3-1.34,0-2.51.38-3.51,1.13s-1.9,1.8-2.7,3.14v11.61Z"/><path d="m209.22,54.05v63.69h-7.82v-43.66c0-.71.02-1.48.06-2.32.04-.84.09-1.69.17-2.54l-17.58,37.82c-.68,1.56-1.73,2.34-3.15,2.34h-1.25c-1.44,0-2.49-.78-3.15-2.34l-17.85-37.91c.08.86.13,1.71.17,2.57.04.86.06,1.65.06,2.39v43.66h-7.82v-63.69h6.65c.78,0,1.39.08,1.82.24.43.16.82.66,1.18,1.48l17.54,37.02c.38.86.74,1.73,1.08,2.63s.65,1.82.93,2.76c.3-.94.63-1.88.97-2.81s.7-1.82,1.08-2.68l17.28-36.93c.35-.83.75-1.32,1.18-1.48.43-.16,1.04-.24,1.82-.24h6.65Z"/><path d="m236.25,71.92c2.86,0,5.45.55,7.77,1.64s4.29,2.64,5.92,4.64,2.89,4.44,3.78,7.3,1.33,6.07,1.33,9.64-.44,6.78-1.33,9.64-2.15,5.3-3.78,7.32c-1.63,2.02-3.61,3.58-5.92,4.67-2.32,1.09-4.91,1.64-7.77,1.64s-5.49-.55-7.8-1.64c-2.32-1.09-4.3-2.65-5.94-4.67-1.65-2.02-2.91-4.46-3.8-7.32-.89-2.86-1.33-6.07-1.33-9.64s.44-6.78,1.33-9.64c.89-2.86,2.15-5.29,3.8-7.3s3.63-3.55,5.94-4.64c2.32-1.09,4.92-1.64,7.8-1.64Zm0,39.05c3.49,0,6.09-1.36,7.8-4.09,1.71-2.73,2.56-6.63,2.56-11.7s-.85-8.99-2.56-11.74c-1.71-2.76-4.31-4.14-7.8-4.14s-6.18,1.38-7.9,4.14-2.58,6.67-2.58,11.74.86,8.97,2.58,11.7,4.35,4.09,7.9,4.09Z"/><path d="m295.76,52.28v65.46h-4.94c-1.09,0-1.79-.6-2.09-1.81l-.72-4.91c-1.62,2.21-3.46,4-5.52,5.35-2.06,1.36-4.46,2.03-7.2,2.03-2.18,0-4.15-.51-5.92-1.53-1.77-1.02-3.29-2.5-4.56-4.45-1.27-1.95-2.25-4.36-2.94-7.23s-1.04-6.17-1.04-9.89c0-3.36.39-6.47,1.16-9.33.77-2.86,1.88-5.34,3.32-7.45,1.44-2.11,3.2-3.76,5.26-4.95s4.37-1.79,6.93-1.79c2.28,0,4.21.42,5.81,1.26,1.59.84,3.02,2.01,4.29,3.52v-24.28h8.16Zm-8.16,31.45c-1.14-1.71-2.39-2.9-3.76-3.58-1.37-.68-2.85-1.02-4.44-1.02-3.19,0-5.68,1.36-7.48,4.09-1.8,2.73-2.7,6.76-2.7,12.1,0,2.77.2,5.14.61,7.1s.99,3.56,1.75,4.8,1.68,2.14,2.77,2.7c1.09.56,2.32.84,3.68.84,2.08,0,3.87-.52,5.37-1.57,1.51-1.05,2.91-2.53,4.2-4.45v-21.01Z"/><path d="m338.36,72.63v45.11h-4.94c-1.09,0-1.78-.6-2.09-1.81l-.61-4.2c-.81,1-1.67,1.92-2.56,2.74-.9.83-1.85,1.53-2.87,2.12-1.01.59-2.09,1.05-3.25,1.37-1.15.32-2.39.49-3.7.49-2.13,0-4-.41-5.62-1.24-1.62-.83-2.98-1.99-4.08-3.5-1.1-1.5-1.93-3.31-2.49-5.42-.56-2.11-.83-4.43-.83-6.97v-28.71h8.16v28.71c0,3.04.6,5.4,1.8,7.08,1.2,1.68,3.03,2.52,5.49,2.52,1.8,0,3.47-.48,5.03-1.44,1.56-.96,3.02-2.28,4.39-3.96v-32.91h8.16Z"/><path d="m356.62,52.28v65.46h-8.16V52.28h8.16Z"/><path d="m372.65,95.94c.1,2.57.44,4.79,1.03,6.66.58,1.87,1.36,3.43,2.34,4.67.97,1.24,2.14,2.16,3.49,2.76,1.35.6,2.87.91,4.54.91s2.97-.21,4.14-.64c1.16-.43,2.18-.9,3.04-1.42.86-.52,1.59-.99,2.2-1.42.61-.43,1.16-.64,1.67-.64.66,0,1.16.29,1.52.88l2.32,3.49c-.96,1.33-2.05,2.45-3.26,3.36-1.22.91-2.51,1.66-3.87,2.23-1.37.58-2.77.99-4.21,1.24-1.44.25-2.85.38-4.21.38-2.68,0-5.17-.52-7.46-1.57-2.29-1.05-4.28-2.59-5.96-4.62-1.68-2.04-3-4.56-3.95-7.56-.95-3.01-1.42-6.47-1.42-10.39,0-3.12.42-6.04,1.27-8.76.85-2.71,2.06-5.07,3.65-7.08,1.58-2,3.51-3.59,5.77-4.75,2.27-1.16,4.83-1.75,7.69-1.75,2.38,0,4.58.45,6.61,1.35s3.77,2.22,5.24,3.96c1.47,1.74,2.61,3.87,3.44,6.39.82,2.52,1.23,5.39,1.23,8.6,0,1.47-.14,2.46-.42,2.96-.28.5-.79.75-1.52.75h-24.87Zm19.48-5.84c0-1.59-.2-3.07-.59-4.45-.39-1.37-.97-2.57-1.73-3.58-.76-1.02-1.7-1.81-2.83-2.39-1.13-.58-2.42-.86-3.89-.86-2.96,0-5.29.99-6.99,2.96-1.7,1.98-2.77,4.75-3.23,8.32h19.25Z"/><path d="m430.17,80.81c-.2.41-.43.71-.68.88-.25.18-.57.26-.95.26-.43,0-.9-.15-1.4-.46-.51-.31-1.1-.66-1.79-1.04-.68-.38-1.49-.73-2.41-1.04s-2.01-.46-3.25-.46c-1.01,0-1.93.14-2.75.42-.82.28-1.52.68-2.09,1.19s-1.01,1.12-1.31,1.81-.46,1.44-.46,2.23c0,1.06.28,1.95.84,2.65.56.71,1.29,1.32,2.2,1.84.91.52,1.95.98,3.11,1.39s2.35.86,3.57,1.33c1.21.47,2.41,1.02,3.57,1.64s2.2,1.38,3.11,2.28c.91.9,1.64,1.99,2.2,3.27.56,1.28.83,2.84.83,4.67,0,2.12-.33,4.08-.99,5.88-.66,1.8-1.62,3.36-2.89,4.69s-2.84,2.36-4.73,3.1c-1.89.74-4.04,1.11-6.47,1.11-1.34,0-2.64-.14-3.89-.42s-2.44-.66-3.57-1.15c-1.13-.49-2.18-1.07-3.15-1.75-.97-.68-1.84-1.42-2.6-2.21l1.9-3.63c.23-.44.51-.79.85-1.04.34-.25.77-.38,1.27-.38s1.06.2,1.58.6c.52.4,1.13.83,1.82,1.31s1.54.91,2.53,1.3c.99.4,2.21.6,3.68.6,1.22,0,2.27-.17,3.15-.51.89-.34,1.62-.8,2.2-1.39.58-.59,1.01-1.26,1.29-2.01.28-.75.42-1.55.42-2.41,0-1.15-.28-2.09-.84-2.83s-1.3-1.37-2.22-1.9c-.92-.53-1.97-1-3.15-1.42-1.18-.41-2.37-.85-3.59-1.33-1.21-.47-2.41-1.02-3.59-1.64-1.18-.62-2.23-1.41-3.15-2.37-.92-.96-1.67-2.12-2.22-3.49s-.83-3.04-.83-5.02c0-1.8.31-3.51.93-5.13.62-1.62,1.53-3.05,2.73-4.29s2.68-2.22,4.44-2.94,3.79-1.08,6.09-1.08c2.61,0,4.97.49,7.1,1.46,2.13.97,3.91,2.3,5.35,3.98l-1.82,3.45Z"/></g></svg>