<?xml version="1.0" encoding="UTF-8"?><svg id="Layer_2" xmlns="http://www.w3.org/2000/svg" xmlns:xlink="http://www.w3.org/1999/xlink" viewBox="0 0 435.22 142.29"><defs><style>.cls-1{fill:url(#linear-gradient);}.cls-2{fill:#fff;}.cls-3{fill:#20a27c;}.cls-4{fill:url(#linear-gradient-3);}.cls-5{fill:url(#linear-gradient-4);}.cls-6{fill:url(#linear-gradient-2);}</style><linearGradient id="linear-gradient" x1="3.01" y1="36.97" x2="64.47" y2="36.97" gradientUnits="userSpaceOnUse"><stop offset="0" stop-color="#ffd914"/><stop offset="1" stop-color="#fdb609"/></linearGradient><linearGradient id="linear-gradient-2" x1="68.03" y1="54.87" x2="109.44" y2="54.87" gradientUnits="userSpaceOnUse"><stop offset="0" stop-color="#0499f5"/><stop offset=".47" stop-color="#26acf8"/><stop offset=".86" stop-color="#3fbafb"/></linearGradient><linearGradient id="linear-gradient-3" x1="3.01" y1="96.13" x2="109.44" y2="96.13" gradientUnits="userSpaceOnUse"><stop offset="0" stop-color="#ed3824"/><stop offset=".26" stop-color="#ef461c"/><stop offset=".75" stop-color="#f66d0a"/><stop offset="1" stop-color="#fa8400"/></linearGradient><linearGradient id="linear-gradient-4" x1="68.03" y1="19.27" x2="109.44" y2="19.27" gradientUnits="userSpaceOnUse"><stop offset="0" stop-color="#0053c8"/><stop offset=".42" stop-color="#0061cc"/><stop offset=".72" stop-color="#006fd0"/></linearGradient></defs><g id="Layer_1-2"><rect width="112.51" height="121.39" rx="3.74" ry="3.74"/><line class="cls-3" x1="313.3" y1="61.42" x2="372.36" y2="49.4"/><rect class="cls-1" x="3.01" y="3.3" width="61.46" height="67.34" rx="1.53" ry="1.53"/><rect class="cls-6" x="68.03" y="39.11" width="41.4" height="31.52" rx="1.53" ry="1.53"/><rect class="cls-4" x="3.01" y="74.38" width="106.43" height="43.51" rx="1.53" ry="1.53"/><rect class="cls-5" x="68.03" y="3.3" width="41.4" height="31.93" rx="1.53" ry="1.53"/><path class="cls-2" d="m158.53,35.71c1.13,0,2.13-.22,3.02-.66s1.64-1.06,2.25-1.86c.61-.8,1.08-1.75,1.41-2.85.32-1.11.48-2.32.48-3.65V7.42h3.67v19.26c0,1.83-.25,3.52-.75,5.09s-1.22,2.92-2.15,4.06c-.93,1.14-2.07,2.04-3.41,2.69-1.34.65-2.85.97-4.52.97s-3.18-.32-4.52-.97c-1.34-.65-2.48-1.54-3.42-2.69s-1.65-2.5-2.15-4.06-.75-3.26-.75-5.09V7.42h3.66v19.24c0,1.33.16,2.54.48,3.65.32,1.11.79,2.06,1.4,2.85.61.8,1.37,1.42,2.26,1.87.89.45,1.9.67,3.03.67Z"/><path class="cls-2" d="m177.78,19.96c.42-.54.86-1.04,1.33-1.48.47-.44.97-.82,1.49-1.14.53-.32,1.08-.56,1.67-.73.59-.17,1.22-.25,1.91-.25,1.05,0,1.98.2,2.78.61.8.41,1.47.98,2.01,1.73s.95,1.64,1.22,2.69.42,2.2.42,3.47v14.26h-3.4v-14.26c0-1.7-.33-3.01-1-3.95-.66-.94-1.67-1.4-3.03-1.4-1,0-1.93.28-2.8.84-.87.56-1.67,1.32-2.4,2.28v16.5h-3.4v-22.4h2.03c.48,0,.78.27.89.82l.27,2.43Z"/><path class="cls-2" d="m200.07,9.68c0,.38-.07.74-.2,1.07s-.31.63-.53.88c-.22.26-.48.46-.78.61-.3.15-.61.22-.94.22s-.64-.07-.92-.22c-.28-.15-.54-.35-.75-.61s-.39-.55-.51-.88c-.13-.33-.19-.69-.19-1.07s.06-.75.19-1.09c.13-.35.3-.65.51-.91.21-.26.47-.46.75-.61.29-.15.59-.22.92-.22s.64.07.94.22c.3.15.56.35.78.61.22.26.4.56.53.91s.2.71.2,1.09Zm-.72,7.03v22.4h-3.38v-22.4h3.38Z"/><path class="cls-2" d="m231.41,16.71l-6.23,22.4h-2.68c-.33,0-.56-.25-.68-.75l-4.25-15.19c-.1-.34-.18-.68-.25-1.03-.06-.35-.13-.69-.19-1.03-.06.34-.13.68-.19,1.03-.06.35-.15.7-.25,1.05l-4.33,15.17c-.11.5-.37.75-.76.75h-2.54l-6.23-22.4h2.66c.27,0,.49.08.67.24.18.16.31.35.37.58l3.68,14.42c.22,1.06.39,2.06.51,3.01.11-.49.23-.98.35-1.48.12-.5.25-1.01.39-1.53l4.06-14.51c.06-.22.17-.41.33-.55s.35-.22.58-.22h1.48c.25,0,.46.07.63.22s.28.33.34.55l3.97,14.51c.14.52.27,1.02.38,1.53.11.5.22,1,.32,1.48.06-.49.14-.98.24-1.47s.2-1.01.31-1.54l3.76-14.42c.06-.24.18-.43.36-.59.18-.16.39-.23.63-.23h2.54Z"/><path class="cls-2" d="m250.06,35.97c-.42.59-.92,1.1-1.5,1.54-.58.44-1.21.79-1.87,1.07-.66.28-1.35.49-2.06.63s-1.41.21-2.11.21c-1.33,0-2.55-.26-3.67-.79s-2.09-1.29-2.91-2.3-1.45-2.26-1.91-3.75c-.46-1.49-.68-3.2-.68-5.13,0-1.56.21-3.02.62-4.38.41-1.36,1-2.53,1.78-3.53.77-1,1.71-1.78,2.83-2.34,1.11-.57,2.37-.85,3.76-.85,1.15,0,2.22.22,3.2.67.98.45,1.83,1.1,2.54,1.95.71.85,1.27,1.89,1.68,3.14s.61,2.67.61,4.26c0,.62-.06,1.03-.17,1.24-.11.21-.33.31-.65.31h-12.85c.04,1.42.21,2.65.5,3.69.3,1.05.71,1.92,1.24,2.62s1.16,1.22,1.9,1.57c.73.35,1.56.52,2.47.52.85,0,1.58-.11,2.19-.34s1.14-.48,1.58-.74c.44-.27.81-.51,1.11-.74.3-.23.55-.34.77-.34.28,0,.49.13.65.38l.95,1.44Zm-2.73-10.5c0-.91-.11-1.75-.33-2.51-.22-.76-.54-1.42-.97-1.97-.42-.55-.94-.98-1.55-1.28-.61-.3-1.3-.45-2.07-.45-1.62,0-2.9.55-3.84,1.65-.94,1.1-1.53,2.62-1.76,4.57h10.52Z"/><path class="cls-2" d="m257.9,19.94c.81-1.09,1.72-1.96,2.74-2.61,1.02-.65,2.19-.97,3.52-.97,1.13,0,2.14.25,3.05.75.91.5,1.67,1.23,2.31,2.18s1.12,2.1,1.45,3.46c.33,1.36.5,2.88.5,4.58,0,1.81-.19,3.46-.57,4.95-.38,1.49-.93,2.76-1.64,3.82s-1.58,1.87-2.61,2.46c-1.03.58-2.18.87-3.46.87s-2.33-.28-3.2-.83c-.87-.55-1.62-1.34-2.27-2.36l-.17,2.03c-.1.56-.39.84-.87.84h-2.18V6.54h3.4v13.4Zm0,13.78c.62.97,1.3,1.66,2.04,2.06.74.4,1.55.6,2.44.6,1.81,0,3.2-.74,4.16-2.23s1.44-3.71,1.44-6.66c0-2.74-.43-4.76-1.28-6.05-.85-1.29-2.07-1.94-3.65-1.94-1.1,0-2.06.29-2.88.88s-1.57,1.42-2.27,2.5v10.84Z"/><path class="cls-2" d="m209.22,54.05v63.69h-7.82v-43.66c0-.71.02-1.48.06-2.32.04-.84.09-1.69.17-2.54l-17.58,37.82c-.68,1.56-1.73,2.34-3.15,2.34h-1.25c-1.44,0-2.49-.78-3.15-2.34l-17.85-37.91c.08.86.13,1.71.17,2.57.04.86.06,1.65.06,2.39v43.66h-7.82v-63.69h6.65c.78,0,1.39.08,1.82.24.43.16.82.66,1.18,1.48l17.54,37.02c.38.86.74,1.73,1.08,2.63s.65,1.82.93,2.76c.3-.94.63-1.88.97-2.81s.7-1.82,1.08-2.68l17.28-36.93c.35-.83.75-1.32,1.18-1.48.43-.16,1.04-.24,1.82-.24h6.65Z"/><path class="cls-2" d="m236.25,71.92c2.86,0,5.45.55,7.77,1.64s4.29,2.64,5.92,4.64,2.89,4.44,3.78,7.3,1.33,6.07,1.33,9.64-.44,6.78-1.33,9.64-2.15,5.3-3.78,7.32c-1.63,2.02-3.61,3.58-5.92,4.67-2.32,1.09-4.91,1.64-7.77,1.64s-5.49-.55-7.8-1.64c-2.32-1.09-4.3-2.65-5.94-4.67-1.65-2.02-2.91-4.46-3.8-7.32-.89-2.86-1.33-6.07-1.33-9.64s.44-6.78,1.33-9.64c.89-2.86,2.15-5.29,3.8-7.3s3.63-3.55,5.94-4.64c2.32-1.09,4.92-1.64,7.8-1.64Zm0,39.05c3.49,0,6.09-1.36,7.8-4.09,1.71-2.73,2.56-6.63,2.56-11.7s-.85-8.99-2.56-11.74c-1.71-2.76-4.31-4.14-7.8-4.14s-6.18,1.38-7.9,4.14-2.58,6.67-2.58,11.74.86,8.97,2.58,11.7,4.35,4.09,7.9,4.09Z"/><path class="cls-2" d="m295.76,52.28v65.46h-4.94c-1.09,0-1.79-.6-2.09-1.81l-.72-4.91c-1.62,2.21-3.46,4-5.52,5.35-2.06,1.36-4.46,2.03-7.2,2.03-2.18,0-4.15-.51-5.92-1.53-1.77-1.02-3.29-2.5-4.56-4.45-1.27-1.95-2.25-4.36-2.94-7.23s-1.04-6.17-1.04-9.89c0-3.36.39-6.47,1.16-9.33.77-2.86,1.88-5.34,3.32-7.45,1.44-2.11,3.2-3.76,5.26-4.95s4.37-1.79,6.93-1.79c2.28,0,4.21.42,5.81,1.26,1.59.84,3.02,2.01,4.29,3.52v-24.28h8.16Zm-8.16,31.45c-1.14-1.71-2.39-2.9-3.76-3.58-1.37-.68-2.85-1.02-4.44-1.02-3.19,0-5.68,1.36-7.48,4.09-1.8,2.73-2.7,6.76-2.7,12.1,0,2.77.2,5.14.61,7.1s.99,3.56,1.75,4.8,1.68,2.14,2.77,2.7c1.09.56,2.32.84,3.68.84,2.08,0,3.87-.52,5.37-1.57,1.51-1.05,2.91-2.53,4.2-4.45v-21.01Z"/><path class="cls-2" d="m338.36,72.63v45.11h-4.94c-1.09,0-1.78-.6-2.09-1.81l-.61-4.2c-.81,1-1.67,1.92-2.56,2.74-.9.83-1.85,1.53-2.87,2.12-1.01.59-2.09,1.05-3.25,1.37-1.15.32-2.39.49-3.7.49-2.13,0-4-.41-5.62-1.24-1.62-.83-2.98-1.99-4.08-3.5-1.1-1.5-1.93-3.31-2.49-5.42-.56-2.11-.83-4.43-.83-6.97v-28.71h8.16v28.71c0,3.04.6,5.4,1.8,7.08,1.2,1.68,3.03,2.52,5.49,2.52,1.8,0,3.47-.48,5.03-1.44,1.56-.96,3.02-2.28,4.39-3.96v-32.91h8.16Z"/><path class="cls-2" d="m356.62,52.28v65.46h-8.16V52.28h8.16Z"/><path class="cls-2" d="m372.65,95.94c.1,2.57.44,4.79,1.03,6.66.58,1.87,1.36,3.43,2.34,4.67.97,1.24,2.14,2.16,3.49,2.76,1.35.6,2.87.91,4.54.91s2.97-.21,4.14-.64c1.16-.43,2.18-.9,3.04-1.42.86-.52,1.59-.99,2.2-1.42.61-.43,1.16-.64,1.67-.64.66,0,1.16.29,1.52.88l2.32,3.49c-.96,1.33-2.05,2.45-3.26,3.36-1.22.91-2.51,1.66-3.87,2.23-1.37.58-2.77.99-4.21,1.24-1.44.25-2.85.38-4.21.38-2.68,0-5.17-.52-7.46-1.57-2.29-1.05-4.28-2.59-5.96-4.62-1.68-2.04-3-4.56-3.95-7.56-.95-3.01-1.42-6.47-1.42-10.39,0-3.12.42-6.04,1.27-8.76.85-2.71,2.06-5.07,3.65-7.08,1.58-2,3.51-3.59,5.77-4.75,2.27-1.16,4.83-1.75,7.69-1.75,2.38,0,4.58.45,6.61,1.35s3.77,2.22,5.24,3.96c1.47,1.74,2.61,3.87,3.44,6.39.82,2.52,1.23,5.39,1.23,8.6,0,1.47-.14,2.46-.42,2.96-.28.5-.79.75-1.52.75h-24.87Zm19.48-5.84c0-1.59-.2-3.07-.59-4.45-.39-1.37-.97-2.57-1.73-3.58-.76-1.02-1.7-1.81-2.83-2.39-1.13-.58-2.42-.86-3.89-.86-2.96,0-5.29.99-6.99,2.96-1.7,1.98-2.77,4.75-3.23,8.32h19.25Z"/><path class="cls-2" d="m430.17,80.81c-.2.41-.43.71-.68.88-.25.18-.57.26-.95.26-.43,0-.9-.15-1.4-.46-.51-.31-1.1-.66-1.79-1.04-.68-.38-1.49-.73-2.41-1.04s-2.01-.46-3.25-.46c-1.01,0-1.93.14-2.75.42-.82.28-1.52.68-2.09,1.19s-1.01,1.12-1.31,1.81-.46,1.44-.46,2.23c0,1.06.28,1.95.84,2.65.56.71,1.29,1.32,2.2,1.84.91.52,1.95.98,3.11,1.39s2.35.86,3.57,1.33c1.21.47,2.41,1.02,3.57,1.64s2.2,1.38,3.11,2.28c.91.9,1.64,1.99,2.2,3.27.56,1.28.83,2.84.83,4.67,0,2.12-.33,4.08-.99,5.88-.66,1.8-1.62,3.36-2.89,4.69s-2.84,2.36-4.73,3.1c-1.89.74-4.04,1.11-6.47,1.11-1.34,0-2.64-.14-3.89-.42s-2.44-.66-3.57-1.15c-1.13-.49-2.18-1.07-3.15-1.75-.97-.68-1.84-1.42-2.6-2.21l1.9-3.63c.23-.44.51-.79.85-1.04.34-.25.77-.38,1.27-.38s1.06.2,1.58.6c.52.4,1.13.83,1.82,1.31s1.54.91,2.53,1.3c.99.4,2.21.6,3.68.6,1.22,0,2.27-.17,3.15-.51.89-.34,1.62-.8,2.2-1.39.58-.59,1.01-1.26,1.29-2.01.28-.75.42-1.55.42-2.41,0-1.15-.28-2.09-.84-2.83s-1.3-1.37-2.22-1.9c-.92-.53-1.97-1-3.15-1.42-1.18-.41-2.37-.85-3.59-1.33-1.21-.47-2.41-1.02-3.59-1.64-1.18-.62-2.23-1.41-3.15-2.37-.92-.96-1.67-2.12-2.22-3.49s-.83-3.04-.83-5.02c0-1.8.31-3.51.93-5.13.62-1.62,1.53-3.05,2.73-4.29s2.68-2.22,4.44-2.94,3.79-1.08,6.09-1.08c2.61,0,4.97.49,7.1,1.46,2.13.97,3.91,2.3,5.35,3.98l-1.82,3.45Z"/></g></svg>